# xmcd CD database file
#
# Track frame offsets:
#	150
#	21082
#	42495
#	64239
#	83014
#	96160
#	113797
#	136243
#	152875
#
# Disc length: 2324 seconds
#
# Revision: 0
# Processed by: cddbd v1.5.1PL0 Copyright (c) Steve Scherf et al.
# Submitted via: CDex 1.51
#
DISCID=71091209
DTITLE=中村まり - Seeds To Grow
DYEAR=2005
DGENRE=Rock
TTITLE0=Grow To The Sun
TTITLE1=First Time You Find Me
TTITLE2=Tell Me Some Sweet Stories
TTITLE3=Good Enough For Me
TTITLE4=Take It Back
TTITLE5=Key To Your Door
TTITLE6=Speak Out Loud
TTITLE7=Our Blue
TTITLE8=Peace Of Mind
EXTD=YEAR: 2005.02/16
EXTT0=
EXTT1=
EXTT2=
EXTT3=
EXTT4=
EXTT5=
EXTT6=
EXTT7=
EXTT8=
PLAYORDER=
